<mxfile host="app.diagrams.net" modified="2022-04-07T08:34:25.904Z" agent="5.0 (Windows NT 10.0; Win64; x64) AppleWebKit/537.36 (KHTML, like Gecko) Chrome/87.0.4280.88 Safari/537.36" etag="KQe5_z6C7Yx2PkCbXJIT" version="17.4.0" type="github">
  <diagram id="C5RBs43oDa-KdzZeNtuy" name="Page-1">
    <mxGraphModel dx="1069" dy="577" grid="1" gridSize="10" guides="1" tooltips="1" connect="1" arrows="1" fold="1" page="1" pageScale="1" pageWidth="827" pageHeight="1169" math="0" shadow="0">
      <root>
        <mxCell id="WIyWlLk6GJQsqaUBKTNV-0" />
        <mxCell id="WIyWlLk6GJQsqaUBKTNV-1" parent="WIyWlLk6GJQsqaUBKTNV-0" />
        <mxCell id="uRkIL3PPQTo-xL53cbyb-20" value="RuleEngine" style="ellipse;" vertex="1" parent="WIyWlLk6GJQsqaUBKTNV-1">
          <mxGeometry x="40" y="542" width="80" height="30" as="geometry" />
        </mxCell>
        <mxCell id="uRkIL3PPQTo-xL53cbyb-21" value="rules for access" style="" vertex="1" parent="WIyWlLk6GJQsqaUBKTNV-1">
          <mxGeometry x="170" y="234" width="110" height="30" as="geometry" />
        </mxCell>
        <mxCell id="uRkIL3PPQTo-xL53cbyb-22" value="" style="edgeStyle=elbowEdgeStyle;elbow=horizontal;curved=1;" edge="1" source="uRkIL3PPQTo-xL53cbyb-20" target="uRkIL3PPQTo-xL53cbyb-21" parent="WIyWlLk6GJQsqaUBKTNV-1">
          <mxGeometry relative="1" as="geometry" />
        </mxCell>
        <mxCell id="uRkIL3PPQTo-xL53cbyb-23" value="apps for ztnp.ini" style="" vertex="1" parent="WIyWlLk6GJQsqaUBKTNV-1">
          <mxGeometry x="170" y="444" width="110" height="30" as="geometry" />
        </mxCell>
        <mxCell id="uRkIL3PPQTo-xL53cbyb-24" value="" style="edgeStyle=elbowEdgeStyle;elbow=horizontal;curved=1;" edge="1" source="uRkIL3PPQTo-xL53cbyb-20" parent="WIyWlLk6GJQsqaUBKTNV-1">
          <mxGeometry relative="1" as="geometry">
            <mxPoint x="170" y="460" as="targetPoint" />
            <Array as="points">
              <mxPoint x="150" y="460" />
              <mxPoint x="280" y="530" />
            </Array>
          </mxGeometry>
        </mxCell>
        <mxCell id="uRkIL3PPQTo-xL53cbyb-25" value="avaiable apps" style="" vertex="1" parent="WIyWlLk6GJQsqaUBKTNV-1">
          <mxGeometry x="175" y="630" width="100" height="30" as="geometry" />
        </mxCell>
        <mxCell id="uRkIL3PPQTo-xL53cbyb-26" value="" style="edgeStyle=elbowEdgeStyle;elbow=horizontal;curved=1;entryX=-0.008;entryY=0.513;entryDx=0;entryDy=0;entryPerimeter=0;" edge="1" source="uRkIL3PPQTo-xL53cbyb-20" target="uRkIL3PPQTo-xL53cbyb-25" parent="WIyWlLk6GJQsqaUBKTNV-1">
          <mxGeometry relative="1" as="geometry" />
        </mxCell>
        <mxCell id="uRkIL3PPQTo-xL53cbyb-27" value="connector" style="" vertex="1" parent="WIyWlLk6GJQsqaUBKTNV-1">
          <mxGeometry x="350" y="164" width="120" height="30" as="geometry" />
        </mxCell>
        <mxCell id="uRkIL3PPQTo-xL53cbyb-28" value="" style="edgeStyle=elbowEdgeStyle;elbow=horizontal;curved=1;" edge="1" source="uRkIL3PPQTo-xL53cbyb-21" target="uRkIL3PPQTo-xL53cbyb-27" parent="WIyWlLk6GJQsqaUBKTNV-1">
          <mxGeometry relative="1" as="geometry" />
        </mxCell>
        <mxCell id="uRkIL3PPQTo-xL53cbyb-29" value="agent" style="" vertex="1" parent="WIyWlLk6GJQsqaUBKTNV-1">
          <mxGeometry x="350" y="234" width="120" height="30" as="geometry" />
        </mxCell>
        <mxCell id="uRkIL3PPQTo-xL53cbyb-30" value="" style="edgeStyle=elbowEdgeStyle;elbow=horizontal;curved=1;" edge="1" source="uRkIL3PPQTo-xL53cbyb-21" target="uRkIL3PPQTo-xL53cbyb-29" parent="WIyWlLk6GJQsqaUBKTNV-1">
          <mxGeometry relative="1" as="geometry" />
        </mxCell>
        <mxCell id="uRkIL3PPQTo-xL53cbyb-31" value="access proxy" style="" vertex="1" parent="WIyWlLk6GJQsqaUBKTNV-1">
          <mxGeometry x="355" y="300" width="120" height="30" as="geometry" />
        </mxCell>
        <mxCell id="uRkIL3PPQTo-xL53cbyb-32" value="" style="edgeStyle=elbowEdgeStyle;elbow=horizontal;curved=1;" edge="1" source="uRkIL3PPQTo-xL53cbyb-21" target="uRkIL3PPQTo-xL53cbyb-31" parent="WIyWlLk6GJQsqaUBKTNV-1">
          <mxGeometry relative="1" as="geometry" />
        </mxCell>
        <mxCell id="uRkIL3PPQTo-xL53cbyb-33" value="connector" style="" vertex="1" parent="WIyWlLk6GJQsqaUBKTNV-1">
          <mxGeometry x="340" y="370" width="130" height="30" as="geometry" />
        </mxCell>
        <mxCell id="uRkIL3PPQTo-xL53cbyb-34" value="" style="edgeStyle=elbowEdgeStyle;elbow=horizontal;curved=1;exitX=1.01;exitY=0.379;exitDx=0;exitDy=0;exitPerimeter=0;" edge="1" source="uRkIL3PPQTo-xL53cbyb-23" target="uRkIL3PPQTo-xL53cbyb-33" parent="WIyWlLk6GJQsqaUBKTNV-1">
          <mxGeometry relative="1" as="geometry" />
        </mxCell>
        <mxCell id="uRkIL3PPQTo-xL53cbyb-35" value="agent ztnp client" style="" vertex="1" parent="WIyWlLk6GJQsqaUBKTNV-1">
          <mxGeometry x="340" y="444" width="130" height="30" as="geometry" />
        </mxCell>
        <mxCell id="uRkIL3PPQTo-xL53cbyb-36" value="" style="edgeStyle=elbowEdgeStyle;elbow=horizontal;curved=1;" edge="1" target="uRkIL3PPQTo-xL53cbyb-35" parent="WIyWlLk6GJQsqaUBKTNV-1">
          <mxGeometry relative="1" as="geometry">
            <mxPoint x="280" y="460" as="sourcePoint" />
          </mxGeometry>
        </mxCell>
        <mxCell id="uRkIL3PPQTo-xL53cbyb-37" value="Entry" style="" vertex="1" parent="WIyWlLk6GJQsqaUBKTNV-1">
          <mxGeometry x="340" y="514" width="130" height="30" as="geometry" />
        </mxCell>
        <mxCell id="uRkIL3PPQTo-xL53cbyb-38" value="" style="edgeStyle=elbowEdgeStyle;elbow=horizontal;curved=1;exitX=1.031;exitY=0.775;exitDx=0;exitDy=0;exitPerimeter=0;" edge="1" source="uRkIL3PPQTo-xL53cbyb-23" target="uRkIL3PPQTo-xL53cbyb-37" parent="WIyWlLk6GJQsqaUBKTNV-1">
          <mxGeometry relative="1" as="geometry" />
        </mxCell>
        <mxCell id="uRkIL3PPQTo-xL53cbyb-40" value="" style="edgeStyle=elbowEdgeStyle;elbow=horizontal;curved=1;entryX=0;entryY=0.5;entryDx=0;entryDy=0;" edge="1" source="uRkIL3PPQTo-xL53cbyb-20" target="uRkIL3PPQTo-xL53cbyb-99" parent="WIyWlLk6GJQsqaUBKTNV-1">
          <mxGeometry relative="1" as="geometry">
            <mxPoint x="170" y="795" as="targetPoint" />
          </mxGeometry>
        </mxCell>
        <mxCell id="uRkIL3PPQTo-xL53cbyb-42" value="" style="edgeStyle=elbowEdgeStyle;elbow=horizontal;curved=1;entryX=0;entryY=0.5;entryDx=0;entryDy=0;" edge="1" source="uRkIL3PPQTo-xL53cbyb-20" target="uRkIL3PPQTo-xL53cbyb-84" parent="WIyWlLk6GJQsqaUBKTNV-1">
          <mxGeometry relative="1" as="geometry">
            <mxPoint x="165" y="905" as="targetPoint" />
          </mxGeometry>
        </mxCell>
        <mxCell id="uRkIL3PPQTo-xL53cbyb-43" value="agent for display" style="" vertex="1" parent="WIyWlLk6GJQsqaUBKTNV-1">
          <mxGeometry x="340" y="600" width="130" height="30" as="geometry" />
        </mxCell>
        <mxCell id="uRkIL3PPQTo-xL53cbyb-44" value="" style="edgeStyle=elbowEdgeStyle;elbow=horizontal;curved=1;entryX=0.015;entryY=0.54;entryDx=0;entryDy=0;entryPerimeter=0;exitX=1.03;exitY=0.62;exitDx=0;exitDy=0;exitPerimeter=0;" edge="1" source="uRkIL3PPQTo-xL53cbyb-25" target="uRkIL3PPQTo-xL53cbyb-43" parent="WIyWlLk6GJQsqaUBKTNV-1">
          <mxGeometry relative="1" as="geometry">
            <mxPoint x="272" y="669" as="sourcePoint" />
            <mxPoint x="350" y="640" as="targetPoint" />
          </mxGeometry>
        </mxCell>
        <mxCell id="uRkIL3PPQTo-xL53cbyb-45" value="app portal for dispaly" style="" vertex="1" parent="WIyWlLk6GJQsqaUBKTNV-1">
          <mxGeometry x="340" y="684" width="130" height="30" as="geometry" />
        </mxCell>
        <mxCell id="uRkIL3PPQTo-xL53cbyb-46" value="" style="edgeStyle=elbowEdgeStyle;elbow=horizontal;curved=1;entryX=-0.006;entryY=0.487;entryDx=0;entryDy=0;entryPerimeter=0;exitX=1.022;exitY=0.7;exitDx=0;exitDy=0;exitPerimeter=0;" edge="1" source="uRkIL3PPQTo-xL53cbyb-25" target="uRkIL3PPQTo-xL53cbyb-45" parent="WIyWlLk6GJQsqaUBKTNV-1">
          <mxGeometry relative="1" as="geometry">
            <mxPoint x="272" y="669" as="sourcePoint" />
          </mxGeometry>
        </mxCell>
        <mxCell id="uRkIL3PPQTo-xL53cbyb-49" value="uid_did" style="text;html=1;align=center;verticalAlign=middle;resizable=0;points=[];autosize=1;strokeColor=none;fillColor=none;" vertex="1" parent="WIyWlLk6GJQsqaUBKTNV-1">
          <mxGeometry x="195" y="210" width="50" height="20" as="geometry" />
        </mxCell>
        <mxCell id="uRkIL3PPQTo-xL53cbyb-84" value="Notify" style="rounded=1;" vertex="1" parent="WIyWlLk6GJQsqaUBKTNV-1">
          <mxGeometry x="170" y="1040" width="80" height="30" as="geometry" />
        </mxCell>
        <mxCell id="uRkIL3PPQTo-xL53cbyb-86" value="User Group Change" style="rounded=1;" vertex="1" parent="WIyWlLk6GJQsqaUBKTNV-1">
          <mxGeometry x="338" y="890" width="150" height="30" as="geometry" />
        </mxCell>
        <mxCell id="uRkIL3PPQTo-xL53cbyb-87" value="" style="edgeStyle=elbowEdgeStyle;elbow=horizontal;" edge="1" source="uRkIL3PPQTo-xL53cbyb-84" target="uRkIL3PPQTo-xL53cbyb-86" parent="WIyWlLk6GJQsqaUBKTNV-1">
          <mxGeometry relative="1" as="geometry" />
        </mxCell>
        <mxCell id="uRkIL3PPQTo-xL53cbyb-88" value="Access Rules Change" style="rounded=1;" vertex="1" parent="WIyWlLk6GJQsqaUBKTNV-1">
          <mxGeometry x="338" y="960" width="150" height="30" as="geometry" />
        </mxCell>
        <mxCell id="uRkIL3PPQTo-xL53cbyb-89" value="" style="edgeStyle=elbowEdgeStyle;elbow=horizontal;" edge="1" source="uRkIL3PPQTo-xL53cbyb-84" target="uRkIL3PPQTo-xL53cbyb-88" parent="WIyWlLk6GJQsqaUBKTNV-1">
          <mxGeometry relative="1" as="geometry" />
        </mxCell>
        <mxCell id="uRkIL3PPQTo-xL53cbyb-90" value="Corporate Apps Change" style="rounded=1;" vertex="1" parent="WIyWlLk6GJQsqaUBKTNV-1">
          <mxGeometry x="340" y="1030" width="150" height="30" as="geometry" />
        </mxCell>
        <mxCell id="uRkIL3PPQTo-xL53cbyb-91" value="" style="edgeStyle=elbowEdgeStyle;elbow=horizontal;" edge="1" source="uRkIL3PPQTo-xL53cbyb-84" target="uRkIL3PPQTo-xL53cbyb-90" parent="WIyWlLk6GJQsqaUBKTNV-1">
          <mxGeometry relative="1" as="geometry" />
        </mxCell>
        <mxCell id="uRkIL3PPQTo-xL53cbyb-92" value="Device Profiles Change" style="rounded=1;" vertex="1" parent="WIyWlLk6GJQsqaUBKTNV-1">
          <mxGeometry x="338" y="1100" width="150" height="30" as="geometry" />
        </mxCell>
        <mxCell id="uRkIL3PPQTo-xL53cbyb-93" value="" style="edgeStyle=elbowEdgeStyle;elbow=horizontal;" edge="1" source="uRkIL3PPQTo-xL53cbyb-84" target="uRkIL3PPQTo-xL53cbyb-92" parent="WIyWlLk6GJQsqaUBKTNV-1">
          <mxGeometry relative="1" as="geometry" />
        </mxCell>
        <mxCell id="uRkIL3PPQTo-xL53cbyb-94" value="AgentInfo Change" style="rounded=1;" vertex="1" parent="WIyWlLk6GJQsqaUBKTNV-1">
          <mxGeometry x="338" y="1170" width="150" height="30" as="geometry" />
        </mxCell>
        <mxCell id="uRkIL3PPQTo-xL53cbyb-95" value="" style="edgeStyle=elbowEdgeStyle;elbow=horizontal;" edge="1" source="uRkIL3PPQTo-xL53cbyb-84" target="uRkIL3PPQTo-xL53cbyb-94" parent="WIyWlLk6GJQsqaUBKTNV-1">
          <mxGeometry relative="1" as="geometry" />
        </mxCell>
        <mxCell id="uRkIL3PPQTo-xL53cbyb-96" value="RiskAction Change" style="rounded=1;" vertex="1" parent="WIyWlLk6GJQsqaUBKTNV-1">
          <mxGeometry x="338.00125" y="1240" width="150" height="30" as="geometry" />
        </mxCell>
        <mxCell id="uRkIL3PPQTo-xL53cbyb-97" value="" style="edgeStyle=elbowEdgeStyle;elbow=horizontal;" edge="1" source="uRkIL3PPQTo-xL53cbyb-84" target="uRkIL3PPQTo-xL53cbyb-96" parent="WIyWlLk6GJQsqaUBKTNV-1">
          <mxGeometry relative="1" as="geometry" />
        </mxCell>
        <mxCell id="uRkIL3PPQTo-xL53cbyb-99" value="Utiles" style="rounded=1;" vertex="1" parent="WIyWlLk6GJQsqaUBKTNV-1">
          <mxGeometry x="170" y="780" width="80" height="30" as="geometry" />
        </mxCell>
        <mxCell id="uRkIL3PPQTo-xL53cbyb-101" value="Verify Browser Access App" style="rounded=1;" vertex="1" parent="WIyWlLk6GJQsqaUBKTNV-1">
          <mxGeometry x="315" y="750" width="190" height="30" as="geometry" />
        </mxCell>
        <mxCell id="uRkIL3PPQTo-xL53cbyb-102" value="" style="edgeStyle=elbowEdgeStyle;elbow=horizontal;" edge="1" source="uRkIL3PPQTo-xL53cbyb-99" target="uRkIL3PPQTo-xL53cbyb-101" parent="WIyWlLk6GJQsqaUBKTNV-1">
          <mxGeometry relative="1" as="geometry" />
        </mxCell>
        <mxCell id="uRkIL3PPQTo-xL53cbyb-103" value="AgentLess App Rules Delete" style="rounded=1;" vertex="1" parent="WIyWlLk6GJQsqaUBKTNV-1">
          <mxGeometry x="315" y="830" width="190" height="30" as="geometry" />
        </mxCell>
        <mxCell id="uRkIL3PPQTo-xL53cbyb-104" value="" style="edgeStyle=elbowEdgeStyle;elbow=horizontal;" edge="1" source="uRkIL3PPQTo-xL53cbyb-99" target="uRkIL3PPQTo-xL53cbyb-103" parent="WIyWlLk6GJQsqaUBKTNV-1">
          <mxGeometry relative="1" as="geometry" />
        </mxCell>
      </root>
    </mxGraphModel>
  </diagram>
</mxfile>
